<svg xmlns="http://www.w3.org/2000/svg">

  <symbol id="icon-profile" viewBox="0 0 24 24" fill="none">
    <circle cx="12" cy="8" r="4" fill="#F7C9CE" stroke="#6B4A46" stroke-width="1.5"/>
    <path d="M4 20c0-4 3.5-6 8-6s8 2 8 6" fill="#F7C9CE" stroke="#6B4A46" stroke-width="1.5" stroke-linecap="round" stroke-linejoin="round"/>
  </symbol>

  <symbol id="icon-class" viewBox="0 0 24 24" fill="none">
    <rect x="3" y="5" width="18" height="16" rx="3" fill="#CFE0FA" stroke="#6B4A46" stroke-width="1.5"/>
    <path d="M3 9.5h18" stroke="#6B4A46" stroke-width="1.5"/>
    <path d="M7 3v4M17 3v4" stroke="#6B4A46" stroke-width="1.5" stroke-linecap="round"/>
    <rect x="6.5" y="12.5" width="3" height="3" rx="1" fill="#A9C9F5"/>
    <rect x="14.5" y="12.5" width="3" height="3" rx="1" fill="#A9C9F5"/>
  </symbol>

  <symbol id="icon-holiday" viewBox="0 0 24 24" fill="none">
    <ellipse cx="12" cy="18.5" rx="7.5" ry="2" fill="#EAF7DC"/>
    <path d="M4 16a8 8 0 0 1 16 0" stroke="#6B4A46" stroke-width="1.5" stroke-linecap="round"/>
    <path d="M6.5 16a5.5 5.5 0 0 1 11 0" stroke="#BFE38A" stroke-width="1.5" stroke-linecap="round"/>
    <path d="M9 16a3 3 0 0 1 6 0" stroke="#F5AFC9" stroke-width="1.5" stroke-linecap="round"/>
  </symbol>

  <symbol id="icon-trip" viewBox="0 0 24 24" fill="none">
    <path d="M8 7l1.1-2A1 1 0 0 1 10 4.4h4a1 1 0 0 1 .9.6L16 7" stroke="#6B4A46" stroke-width="1.5" stroke-linecap="round" stroke-linejoin="round"/>
    <rect x="3" y="7" width="18" height="13" rx="3" fill="#E6D9F7" stroke="#6B4A46" stroke-width="1.5"/>
    <circle cx="12" cy="13.5" r="3.2" fill="#fff" stroke="#6B4A46" stroke-width="1.5"/>
    <circle cx="12" cy="13.5" r="1.3" fill="#D9C2F5"/>
  </symbol>

  <symbol id="icon-signup" viewBox="0 0 24 24" fill="none">
    <rect x="4" y="3" width="13" height="18" rx="2" fill="#FFF6DC" stroke="#6B4A46" stroke-width="1.5"/>
    <path d="M7 8h7M7 12h7M7 16h4" stroke="#E8C878" stroke-width="1.3" stroke-linecap="round"/>
    <path d="M15 17.5l4.5-4.5 2 2-4.5 4.5H15v-2z" fill="#FFD87A" stroke="#6B4A46" stroke-width="1.3" stroke-linejoin="round"/>
  </symbol>

</svg>